<svg xmlns="http://www.w3.org/2000/svg" xmlns:xlink="http://www.w3.org/1999/xlink" width="816" zoomAndPan="magnify" viewBox="0 0 612 791.999994" height="1056" preserveAspectRatio="xMidYMid meet" version="1.0"><defs><clipPath id="41de973e19"><path d="M 0 414 L 612 414 L 612 505.492188 L 0 505.492188 Z M 0 414 " clip-rule="nonzero"/></clipPath><clipPath id="a31e6ed205"><path d="M 0 219.742188 L 612 219.742188 L 612 311 L 0 311 Z M 0 219.742188 " clip-rule="nonzero"/></clipPath></defs><path fill="#ffffff" d="M 501.070312 408.308594 C 470.183594 408.308594 454.449219 387.371094 441.898438 370.59375 C 429.347656 353.820312 420.503906 343.285156 403.535156 343.285156 C 386.5625 343.285156 377.914062 353.6875 365.171875 370.59375 C 352.425781 387.5 336.820312 408.308594 306 408.308594 C 275.179688 408.308594 259.445312 387.371094 246.828125 370.59375 C 234.214844 353.820312 225.4375 343.285156 208.464844 343.285156 C 191.496094 343.285156 182.847656 353.6875 170.167969 370.59375 C 157.488281 387.5 141.816406 408.308594 110.929688 408.308594 C 80.042969 408.308594 64.375 387.371094 51.757812 370.59375 C 39.144531 353.820312 30.433594 343.285156 13.394531 343.285156 C 12.542969 343.285156 11.695312 343.203125 10.859375 343.035156 C 10.023438 342.867188 9.207031 342.621094 8.417969 342.296875 C 7.628906 341.96875 6.882812 341.566406 6.171875 341.09375 C 5.460938 340.617188 4.804688 340.078125 4.199219 339.476562 C 3.597656 338.871094 3.058594 338.214844 2.582031 337.503906 C 2.109375 336.796875 1.707031 336.046875 1.382812 335.257812 C 1.054688 334.46875 0.808594 333.65625 0.640625 332.816406 C 0.476562 331.980469 0.390625 331.132812 0.390625 330.28125 C 0.390625 329.425781 0.476562 328.582031 0.640625 327.742188 C 0.808594 326.90625 1.054688 326.09375 1.382812 325.304688 C 1.707031 324.515625 2.109375 323.765625 2.582031 323.054688 C 3.058594 322.34375 3.597656 321.6875 4.199219 321.085938 C 4.804688 320.480469 5.460938 319.941406 6.171875 319.46875 C 6.882812 318.992188 7.628906 318.59375 8.417969 318.265625 C 9.207031 317.9375 10.023438 317.691406 10.859375 317.527344 C 11.695312 317.359375 12.542969 317.277344 13.394531 317.277344 C 44.28125 317.277344 59.953125 338.214844 72.566406 354.988281 C 85.179688 371.765625 93.894531 382.300781 110.929688 382.300781 C 127.96875 382.300781 136.550781 371.894531 149.292969 354.988281 C 162.039062 338.082031 177.515625 317.277344 208.464844 317.277344 C 239.417969 317.277344 255.085938 338.214844 267.636719 354.988281 C 280.1875 371.765625 288.964844 382.300781 306 382.300781 C 323.035156 382.300781 331.683594 371.894531 344.363281 354.988281 C 357.042969 338.082031 372.582031 317.277344 403.535156 317.277344 C 434.484375 317.277344 450.15625 338.214844 462.769531 354.988281 C 475.386719 371.765625 484.03125 382.300781 501.070312 382.300781 C 518.105469 382.300781 527.078125 371.894531 539.433594 354.988281 C 551.789062 338.082031 567.71875 317.277344 598.605469 317.277344 C 599.457031 317.277344 600.304688 317.359375 601.140625 317.527344 C 601.976562 317.691406 602.792969 317.9375 603.582031 318.265625 C 604.371094 318.59375 605.117188 318.992188 605.828125 319.46875 C 606.539062 319.941406 607.195312 320.480469 607.800781 321.085938 C 608.402344 321.6875 608.941406 322.34375 609.417969 323.054688 C 609.890625 323.765625 610.292969 324.515625 610.617188 325.304688 C 610.945312 326.09375 611.191406 326.90625 611.359375 327.742188 C 611.523438 328.582031 611.609375 329.425781 611.609375 330.28125 C 611.609375 331.132812 611.523438 331.980469 611.359375 332.816406 C 611.191406 333.65625 610.945312 334.46875 610.617188 335.257812 C 610.292969 336.046875 609.890625 336.796875 609.417969 337.503906 C 608.941406 338.214844 608.402344 338.871094 607.800781 339.476562 C 607.195312 340.078125 606.539062 340.617188 605.828125 341.09375 C 605.117188 341.566406 604.371094 341.96875 603.582031 342.296875 C 602.792969 342.621094 601.976562 342.867188 601.140625 343.035156 C 600.304688 343.203125 599.457031 343.285156 598.605469 343.285156 C 581.566406 343.285156 572.59375 353.6875 560.238281 370.59375 C 547.886719 387.5 531.957031 408.308594 501.070312 408.308594 Z M 501.070312 408.308594 " fill-opacity="1" fill-rule="nonzero"/><g clip-path="url(#41de973e19)"><path fill="#ffffff" d="M 501.070312 505.84375 C 470.183594 505.84375 454.449219 484.90625 441.898438 468.128906 C 429.347656 451.351562 420.503906 440.820312 403.535156 440.820312 C 386.5625 440.820312 377.914062 451.222656 365.171875 468.128906 C 352.425781 485.035156 336.820312 505.84375 306 505.84375 C 275.179688 505.84375 259.445312 484.90625 246.828125 468.128906 C 234.214844 451.351562 225.4375 440.820312 208.464844 440.820312 C 191.496094 440.820312 182.847656 451.222656 170.167969 468.128906 C 157.488281 485.035156 141.816406 505.84375 110.929688 505.84375 C 80.042969 505.84375 64.375 484.90625 51.757812 468.128906 C 39.144531 451.351562 30.433594 440.820312 13.394531 440.820312 C 12.542969 440.820312 11.695312 440.738281 10.859375 440.570312 C 10.023438 440.402344 9.207031 440.15625 8.417969 439.828125 C 7.628906 439.503906 6.882812 439.101562 6.171875 438.628906 C 5.460938 438.152344 4.804688 437.613281 4.199219 437.011719 C 3.597656 436.40625 3.058594 435.75 2.582031 435.039062 C 2.109375 434.332031 1.707031 433.582031 1.382812 432.792969 C 1.054688 432.003906 0.808594 431.191406 0.640625 430.351562 C 0.476562 429.515625 0.390625 428.667969 0.390625 427.816406 C 0.390625 426.960938 0.476562 426.117188 0.640625 425.277344 C 0.808594 424.441406 1.054688 423.628906 1.382812 422.839844 C 1.707031 422.050781 2.109375 421.300781 2.582031 420.589844 C 3.058594 419.878906 3.597656 419.222656 4.199219 418.621094 C 4.804688 418.015625 5.460938 417.476562 6.171875 417.003906 C 6.882812 416.527344 7.628906 416.128906 8.417969 415.800781 C 9.207031 415.472656 10.023438 415.226562 10.859375 415.058594 C 11.695312 414.894531 12.542969 414.808594 13.394531 414.808594 C 44.28125 414.808594 59.953125 435.746094 72.566406 452.523438 C 85.179688 469.300781 93.894531 479.832031 110.929688 479.832031 C 127.96875 479.832031 136.550781 469.429688 149.292969 452.523438 C 162.039062 435.617188 177.515625 414.808594 208.464844 414.808594 C 239.417969 414.808594 255.085938 435.746094 267.636719 452.523438 C 280.1875 469.300781 288.964844 479.832031 306 479.832031 C 323.035156 479.832031 331.683594 469.429688 344.363281 452.523438 C 357.042969 435.617188 372.582031 414.808594 403.535156 414.808594 C 434.484375 414.808594 450.15625 435.746094 462.769531 452.523438 C 475.386719 469.300781 484.03125 479.832031 501.070312 479.832031 C 518.105469 479.832031 527.078125 469.429688 539.433594 452.523438 C 551.789062 435.617188 567.71875 414.808594 598.605469 414.808594 C 599.457031 414.808594 600.304688 414.894531 601.140625 415.058594 C 601.976562 415.226562 602.792969 415.472656 603.582031 415.800781 C 604.371094 416.128906 605.117188 416.527344 605.828125 417.003906 C 606.539062 417.476562 607.195312 418.015625 607.800781 418.621094 C 608.402344 419.222656 608.941406 419.878906 609.417969 420.589844 C 609.890625 421.300781 610.292969 422.050781 610.617188 422.839844 C 610.945312 423.628906 611.191406 424.441406 611.359375 425.277344 C 611.523438 426.117188 611.609375 426.960938 611.609375 427.816406 C 611.609375 428.667969 611.523438 429.515625 611.359375 430.351562 C 611.191406 431.191406 610.945312 432.003906 610.617188 432.792969 C 610.292969 433.582031 609.890625 434.332031 609.417969 435.039062 C 608.941406 435.75 608.402344 436.40625 607.800781 437.011719 C 607.195312 437.613281 606.539062 438.152344 605.828125 438.628906 C 605.117188 439.101562 604.371094 439.503906 603.582031 439.828125 C 602.792969 440.15625 601.976562 440.402344 601.140625 440.570312 C 600.304688 440.738281 599.457031 440.820312 598.605469 440.820312 C 581.566406 440.820312 572.59375 451.222656 560.238281 468.128906 C 547.886719 485.035156 531.957031 505.84375 501.070312 505.84375 Z M 501.070312 505.84375 " fill-opacity="1" fill-rule="nonzero"/></g><g clip-path="url(#a31e6ed205)"><path fill="#ffffff" d="M 501.070312 310.773438 C 470.183594 310.773438 454.449219 289.835938 441.898438 273.058594 C 429.347656 256.285156 420.503906 245.75 403.535156 245.75 C 386.5625 245.75 377.914062 256.152344 365.171875 273.058594 C 352.425781 289.964844 336.820312 310.773438 306 310.773438 C 275.179688 310.773438 259.445312 289.835938 246.828125 273.058594 C 234.214844 256.285156 225.4375 245.75 208.464844 245.75 C 191.496094 245.75 182.847656 256.152344 170.167969 273.058594 C 157.488281 289.964844 141.816406 310.773438 110.929688 310.773438 C 80.042969 310.773438 64.375 289.835938 51.757812 273.058594 C 39.144531 256.285156 30.433594 245.75 13.394531 245.75 C 12.542969 245.75 11.695312 245.667969 10.859375 245.5 C 10.023438 245.335938 9.207031 245.085938 8.417969 244.761719 C 7.628906 244.433594 6.882812 244.035156 6.171875 243.558594 C 5.460938 243.085938 4.804688 242.546875 4.199219 241.941406 C 3.597656 241.335938 3.058594 240.679688 2.582031 239.972656 C 2.109375 239.261719 1.707031 238.511719 1.382812 237.722656 C 1.054688 236.933594 0.808594 236.121094 0.640625 235.28125 C 0.476562 234.445312 0.390625 233.601562 0.390625 232.746094 C 0.390625 231.890625 0.476562 231.046875 0.640625 230.207031 C 0.808594 229.371094 1.054688 228.558594 1.382812 227.769531 C 1.707031 226.980469 2.109375 226.230469 2.582031 225.519531 C 3.058594 224.8125 3.597656 224.152344 4.199219 223.550781 C 4.804688 222.945312 5.460938 222.40625 6.171875 221.933594 C 6.882812 221.457031 7.628906 221.058594 8.417969 220.730469 C 9.207031 220.40625 10.023438 220.15625 10.859375 219.992188 C 11.695312 219.824219 12.542969 219.742188 13.394531 219.742188 C 44.28125 219.742188 59.953125 240.679688 72.566406 257.453125 C 85.179688 274.230469 93.894531 284.765625 110.929688 284.765625 C 127.96875 284.765625 136.550781 274.359375 149.292969 257.453125 C 162.039062 240.546875 177.515625 219.742188 208.464844 219.742188 C 239.417969 219.742188 255.085938 240.679688 267.636719 257.453125 C 280.1875 274.230469 288.964844 284.765625 306 284.765625 C 323.035156 284.765625 331.683594 274.359375 344.363281 257.453125 C 357.042969 240.546875 372.582031 219.742188 403.535156 219.742188 C 434.484375 219.742188 450.15625 240.679688 462.769531 257.453125 C 475.386719 274.230469 484.03125 284.765625 501.070312 284.765625 C 518.105469 284.765625 527.078125 274.359375 539.433594 257.453125 C 551.789062 240.546875 567.71875 219.742188 598.605469 219.742188 C 599.457031 219.742188 600.304688 219.824219 601.140625 219.992188 C 601.976562 220.15625 602.792969 220.40625 603.582031 220.730469 C 604.371094 221.058594 605.117188 221.457031 605.828125 221.933594 C 606.539062 222.40625 607.195312 222.945312 607.800781 223.550781 C 608.402344 224.152344 608.941406 224.8125 609.417969 225.519531 C 609.890625 226.230469 610.292969 226.980469 610.617188 227.769531 C 610.945312 228.558594 611.191406 229.371094 611.359375 230.207031 C 611.523438 231.046875 611.609375 231.890625 611.609375 232.746094 C 611.609375 233.601562 611.523438 234.445312 611.359375 235.28125 C 611.191406 236.121094 610.945312 236.933594 610.617188 237.722656 C 610.292969 238.511719 609.890625 239.261719 609.417969 239.972656 C 608.941406 240.679688 608.402344 241.335938 607.800781 241.941406 C 607.195312 242.546875 606.539062 243.085938 605.828125 243.558594 C 605.117188 244.035156 604.371094 244.433594 603.582031 244.761719 C 602.792969 245.085938 601.976562 245.335938 601.140625 245.5 C 600.304688 245.667969 599.457031 245.75 598.605469 245.75 C 581.566406 245.75 572.59375 256.152344 560.238281 273.058594 C 547.886719 289.964844 531.957031 310.773438 501.070312 310.773438 Z M 501.070312 310.773438 " fill-opacity="1" fill-rule="nonzero"/></g></svg>