<svg xmlns="http://www.w3.org/2000/svg" xmlns:xlink="http://www.w3.org/1999/xlink" width="816" zoomAndPan="magnify" viewBox="0 0 612 791.999994" height="1056" preserveAspectRatio="xMidYMid meet" version="1.0"><defs><clipPath id="b019705be5"><path d="M 22.261719 112.261719 L 590 112.261719 L 590 680 L 22.261719 680 Z M 22.261719 112.261719 " clip-rule="nonzero"/></clipPath></defs><g clip-path="url(#b019705be5)"><path fill="#ff4b89" d="M 305.769531 679.421875 C 149.359375 679.421875 22.105469 552.175781 22.105469 395.757812 C 22.105469 239.347656 149.359375 112.097656 305.769531 112.097656 C 462.175781 112.097656 589.421875 239.347656 589.421875 395.757812 C 589.421875 552.175781 462.175781 679.421875 305.769531 679.421875 Z M 305.769531 140.078125 C 164.78125 140.078125 50.082031 254.777344 50.082031 395.757812 C 50.082031 536.746094 164.78125 651.445312 305.769531 651.445312 C 446.75 651.445312 561.445312 536.746094 561.445312 395.757812 C 561.445312 254.777344 446.75 140.078125 305.769531 140.078125 Z M 305.769531 140.078125 " fill-opacity="1" fill-rule="nonzero"/></g><path fill="#ff4b89" d="M 392.5 334.113281 C 392.5 330.421875 388.902344 326.148438 386.515625 324.691406 C 384.296875 323.34375 379.808594 322.398438 376.21875 323.328125 L 239.480469 359.054688 C 234.238281 360.421875 230.585938 365.15625 230.585938 370.578125 L 230.585938 381.113281 L 230.53125 381.125 L 230.53125 481.054688 C 232.824219 487.542969 233.152344 495.167969 230.953125 503.367188 C 224.679688 526.769531 200.628906 545.734375 177.230469 545.734375 C 153.824219 545.734375 139.949219 526.769531 146.214844 503.367188 C 152.488281 479.960938 176.542969 460.996094 199.933594 460.996094 C 200.242188 460.996094 200.535156 461.039062 200.835938 461.046875 L 199.085938 318.457031 C 199.085938 309.476562 205.125 301.628906 213.804688 299.328125 L 398.34375 250.351562 C 404.300781 248.777344 410.625 250.054688 415.488281 253.792969 C 420.363281 257.546875 423.214844 263.339844 423.214844 269.484375 L 421.445312 440.527344 C 422.96875 446.417969 422.953125 453.121094 421.042969 460.246094 C 414.773438 483.644531 390.726562 502.613281 367.324219 502.613281 C 343.917969 502.613281 330.039062 483.644531 336.308594 460.246094 C 342.578125 436.84375 366.632812 417.875 390.03125 417.875 C 390.617188 417.875 391.171875 417.945312 391.753906 417.964844 Z M 392.5 334.113281 " fill-opacity="1" fill-rule="nonzero"/></svg>