<?xml version="1.0" encoding="UTF-8"?>
<svg id="Layer_1" data-name="Layer 1" xmlns="http://www.w3.org/2000/svg" xmlns:xlink="http://www.w3.org/1999/xlink" viewBox="0 0 223 196">
  <defs>
    <style>
      .cls-1 {
        fill: none;
      }

      .cls-2 {
        clip-path: url(#clippath-1);
      }

      .cls-3 {
        clip-path: url(#clippath-3);
      }

      .cls-4 {
        clip-path: url(#clippath-2);
      }

      .cls-5 {
        fill: #fff;
      }

      .cls-6 {
        clip-path: url(#clippath);
      }
    </style>
    <clipPath id="clippath">
      <rect class="cls-1" x=".26" width="221.49" height="194.68"/>
    </clipPath>
    <clipPath id="clippath-1">
      <rect class="cls-1" x="9.01" y="16" width="204.98" height="111.62"/>
    </clipPath>
    <clipPath id="clippath-2">
      <rect class="cls-1" x="9.01" y="127.62" width="204.98" height="30.02"/>
    </clipPath>
    <clipPath id="clippath-3">
      <rect class="cls-1" x="9.01" y="152.64" width="204.98" height="27.36"/>
    </clipPath>
  </defs>
  <g class="cls-6">
    <path class="cls-5" d="M.26,0h221.49v194.68H.26V0Z"/>
  </g>
  <g>
    <g class="cls-2">
      <path class="cls-5" d="M11.06,117.94c.76.23,1.5.16,2.19-.23.7-.37,1.17-.94,1.41-1.7.08-.29,8.56-28.3,26.4-53.53,10.36-14.66,21.79-25.5,33.99-32.27,15.05-8.33,31.41-10.4,48.59-6.14,20.85,5.16,23.32,16.79,21.71,25.64-1.95,10.67-9.64,17.92-11.78,17.96-2.11-2.44-1.72-5.14-1.29-8.25.57-3.97,1.41-9.93-6.84-11.92-7.37-1.76-18.55,3.69-26.56,9.4-10.83,7.7-18.7,17.37-21.6,26.52-2.19,6.88-1.6,13.27,1.74,18.98,3.65,6.25,10.61,11.45,20.66,15.46,9.03,3.6,16.46,5.08,22.73,5.08,16.16-.02,24.57-9.85,32.25-18.82,7.58-8.85,14.19-16.57,27.38-15.52-.06.08-.14.14-.2.21-3.65,4.2-11.26,12.92-3.22,21.95,5.28,5.96,15.32,10.1,30.72,12.72.78.14,1.5-.02,2.15-.49.66-.47,1.06-1.07,1.17-1.88.14-.78-.02-1.5-.49-2.15-.45-.64-1.07-1.04-1.86-1.17-13.86-2.35-23.08-6-27.4-10.87-4.3-4.85-1.21-9.17,3.28-14.33,2.17-2.5,3.89-4.46,3.05-6.84-.29-.76-1.09-2.13-3.38-2.5-18.37-3.03-27.13,7.21-35.59,17.1-10.32,12.06-20.05,23.43-48.45,12.12-16.34-6.51-22.75-15.69-19.06-27.32,2.5-7.86,9.77-16.67,19.47-23.57,8.48-6.04,17.45-9.52,21.85-8.46,3.03.72,3.07,1.29,2.48,5.47-.51,3.6-1.21,8.52,2.78,13,.8.92,3.15,2.87,7.15,1.17,6.66-2.85,16.01-16.03,14.93-29.39-.68-8.56-5.82-19.82-26.4-24.92-18.66-4.63-36.45-2.36-52.83,6.72-12.98,7.21-25.06,18.66-35.92,34.07-18.35,25.99-26.79,53.92-27.15,55.09-.23.76-.16,1.5.21,2.21.39.7.96,1.15,1.72,1.39Z"/>
    </g>
    <g class="cls-4">
      <path class="cls-5" d="M191.75,130.67c-7.41-1.45-14.91.49-22.34,5.75-22.03,15.62-30.06,12.84-37.6,7.93-1.33-.92-2.58-1.92-3.75-3.01-3.3-2.89-7.04-6.2-13.72-6.8-7.11-.66-16.26,1.86-28.75,7.95-9.73,4.73-16.96,6.39-22.1,5.04-4.26-1.11-6.84-4.26-9.56-7.58-2.35-2.83-4.75-5.78-8.33-7.56-5.37-2.68-13.06-1.68-22.85,2.99-4.38,2.11-8.58,4.55-12.57,7.37-.64.47-1.02,1.09-1.15,1.88-.12.8.06,1.5.53,2.15s1.09,1.04,1.88,1.15c.78.14,1.5-.04,2.15-.51,5.59-4.05,21.75-13.7,29.43-9.87,2.46,1.23,4.4,3.6,6.43,6.08,5.98,7.27,13.43,16.34,38.66,4.05,24.72-12.02,30.27-7.15,36.14-1.99,1.39,1.29,2.85,2.44,4.42,3.5,3.87,2.52,8.27,4.81,14.25,4.81.84,0,1.68-.06,2.5-.14,7.47-.74,16.14-4.79,27.34-12.72,6.06-4.3,12.08-5.92,17.84-4.81,10.24,1.97,16.73,11.9,16.79,12,.43.66,1.04,1.09,1.82,1.27s1.5.04,2.17-.39c.68-.43,1.09-1.04,1.27-1.8.18-.78.04-1.5-.39-2.19-.31-.49-7.82-12.08-20.5-14.54Z"/>
    </g>
    <g class="cls-3">
      <path class="cls-5" d="M191.75,155.51c-7.41-1.45-14.91.49-22.34,5.75-22.03,15.64-30.06,12.84-37.6,7.93-1.33-.9-2.58-1.9-3.75-2.99-3.3-2.91-7.04-6.2-13.72-6.82-7.11-.64-16.26,1.88-28.75,7.95-9.73,4.75-16.96,6.39-22.1,5.04-4.26-1.11-6.84-4.24-9.56-7.56-2.35-2.85-4.75-5.78-8.33-7.56-5.37-2.7-13.06-1.7-22.85,2.97-4.38,2.11-8.58,4.57-12.57,7.37-.64.47-1.02,1.09-1.15,1.9-.12.78.06,1.5.53,2.15s1.09,1.02,1.88,1.15c.78.12,1.5-.06,2.15-.53,5.59-4.05,21.75-13.7,29.43-9.85,2.46,1.23,4.4,3.58,6.43,6.06,5.98,7.29,13.43,16.34,38.66,4.07,24.72-12.04,30.27-7.17,36.14-1.99,1.39,1.27,2.85,2.44,4.42,3.5,3.87,2.52,8.27,4.79,14.25,4.79.84,0,1.68-.04,2.5-.14,7.47-.74,16.14-4.79,27.34-12.72,6.06-4.3,12.08-5.92,17.84-4.81,10.24,1.99,16.73,11.92,16.79,12,.43.68,1.04,1.09,1.82,1.27s1.5.04,2.17-.39c.68-.43,1.09-1.02,1.27-1.8s.04-1.5-.39-2.17c-.31-.51-7.82-12.08-20.5-14.56Z"/>
    </g>
  </g>
</svg>