<?xml version="1.0" encoding="UTF-8"?>
<svg id="Layer_1" data-name="Layer 1" xmlns="http://www.w3.org/2000/svg" xmlns:xlink="http://www.w3.org/1999/xlink" viewBox="0 0 223 196">
  <defs>
    <style>
      .cls-1 {
        fill: none;
      }

      .cls-2 {
        clip-path: url(#clippath-1);
      }

      .cls-3 {
        clip-path: url(#clippath-2);
      }

      .cls-4 {
        fill: #fff;
      }

      .cls-5 {
        clip-path: url(#clippath);
      }
    </style>
    <clipPath id="clippath">
      <rect class="cls-1" x="143.74" y="25.99" width="10.94" height="16.36"/>
    </clipPath>
    <clipPath id="clippath-1">
      <rect class="cls-1" x="183.86" y="71.53" width="18.67" height="10.94"/>
    </clipPath>
    <clipPath id="clippath-2">
      <rect class="cls-1" x="20.47" y="46" width="182.06" height="124.01"/>
    </clipPath>
  </defs>
  <g class="cls-5">
    <path class="cls-4" d="M153.63,38.25v-8.45c0-2.09-1.7-3.79-3.79-3.79s-3.78,1.7-3.78,3.79v8.45c0,2.09,1.7,3.79,3.78,3.79s3.79-1.7,3.79-3.79Z"/>
  </g>
  <g class="cls-2">
    <path class="cls-4" d="M198.37,74.54h-8.45c-2.08,0-3.78,1.7-3.78,3.79s1.7,3.78,3.78,3.78h8.45c2.09,0,3.79-1.68,3.79-3.78s-1.7-3.79-3.79-3.79Z"/>
  </g>
  <path class="cls-4" d="M129.8,47.4c.64,0,1.3-.16,1.9-.5,1.81-1.05,2.42-3.36,1.38-5.17l-4.23-7.32c-1.04-1.81-3.35-2.44-5.16-1.38s-2.44,3.36-1.4,5.17l4.23,7.32c.7,1.21,1.97,1.88,3.28,1.88Z"/>
  <path class="cls-4" d="M184.56,62.07c.64,0,1.28-.16,1.88-.51l7.32-4.22c1.81-1.04,2.42-3.36,1.38-5.17s-3.35-2.44-5.17-1.38l-7.31,4.22c-1.81,1.05-2.44,3.36-1.4,5.17.71,1.21,1.98,1.9,3.29,1.9Z"/>
  <path class="cls-4" d="M169.87,47.4c1.31,0,2.59-.67,3.29-1.88l4.22-7.32c1.05-1.81.43-4.12-1.38-5.17s-4.12-.43-5.17,1.38l-4.22,7.32c-1.05,1.81-.43,4.12,1.38,5.17.6.34,1.24.5,1.88.5Z"/>
  <path class="cls-4" d="M182.67,101.64l7.31,4.23c.6.34,1.25.5,1.9.5,1.31,0,2.58-.67,3.28-1.88,1.04-1.81.43-4.13-1.38-5.17l-7.32-4.23c-1.82-1.04-4.12-.41-5.17,1.4-1.04,1.81-.41,4.12,1.4,5.16Z"/>
  <path class="cls-4" d="M113.23,61.56c.6.36,1.25.51,1.9.51,1.31,0,2.58-.68,3.28-1.9,1.05-1.81.43-4.12-1.38-5.17l-7.32-4.22c-1.81-1.05-4.12-.43-5.16,1.38-1.05,1.81-.43,4.13,1.38,5.17l7.31,4.22Z"/>
  <g class="cls-3">
    <path class="cls-4" d="M169.83,105.77c-.38-1.01-.83-2.01-1.3-2.98,7.57-5.79,12.15-14.86,12.15-24.47,0-17.01-13.84-30.85-30.85-30.85-16.04,0-29.27,12.33-30.69,28.01-7.45-7.24-17.7-11.53-28.65-11.53-22.11,0-40.11,17.1-40.11,38.12,0,1.27.07,2.55.21,3.85-16.88,1.7-30.08,15.33-30.08,31.83,0,17.65,15.09,32.02,33.66,32.02h114.33c18.55,0,33.66-14.36,33.66-32.02s-14.38-31.32-32.33-31.99ZM149.84,55.05c12.84,0,23.28,10.44,23.28,23.28,0,7-3.22,13.64-8.59,18.02-.23-.31-.51-.57-.76-.87-.51-.64-1.05-1.25-1.61-1.85-.47-.5-.94-.98-1.42-1.45-.44-.43-.91-.84-1.37-1.24-2.02-1.78-4.22-3.35-6.55-4.69-.46-.27-.91-.53-1.4-.78-.68-.36-1.38-.7-2.09-1.03-.56-.26-1.13-.48-1.71-.71-.66-.27-1.33-.54-2.01-.78-1.17-.4-2.35-.74-3.56-1.04-.57-.14-1.15-.24-1.74-.36-.81-.16-1.62-.3-2.45-.43-.6-.07-1.18-.14-1.78-.2-.91-.09-1.82-.13-2.74-.16-.38-.01-.77-.07-1.17-.07-.1,0-.2.03-.31.03-1.67.01-3.36.14-5.06.37h-.06c-.11-.93-.17-1.85-.17-2.76,0-12.84,10.44-23.28,23.27-23.28ZM168.5,162.21H54.17c-14.39,0-26.09-10.97-26.09-24.45s11.68-24.42,26.33-24.42c.07,0,.48.01.54.01,1.17.04,2.29-.47,3.05-1.38.74-.91,1.01-2.12.74-3.26-.53-2.24-.78-4.46-.78-6.63,0-16.84,14.59-30.55,32.53-30.55,12,0,23,6.17,28.68,16.1.85,1.5,2.59,2.22,4.25,1.78.36-.09.71-.14,1.07-.23.04,0,.09.01.13,0,1.24-.28,2.41-.47,3.55-.63.28-.03.57-.07.85-.1.7-.07,1.38-.1,2.05-.13.6-.01,1.18-.04,1.77-.03.87.01,1.72.09,2.58.17.68.06,1.35.14,2.02.24.87.14,1.74.3,2.58.5.56.13,1.11.28,1.65.44.66.2,1.3.4,1.92.63.56.2,1.11.4,1.65.61.7.3,1.37.63,2.04.95.77.38,1.51.8,2.24,1.23.61.37,1.23.73,1.81,1.14.47.31.93.67,1.38,1.01.54.43,1.08.87,1.6,1.31.38.34.78.67,1.15,1.03.83.81,1.62,1.65,2.37,2.54.16.2.3.4.46.6.63.81,1.24,1.65,1.78,2.52,1.47,2.29,2.65,4.77,3.43,7.44.5,1.67,2.07,2.79,3.79,2.72l.6-.04c.2,0,.4-.01.61-.01,14.38,0,26.09,10.96,26.09,24.44s-11.71,24.45-26.09,24.45Z"/>
  </g>
</svg>