<?xml version="1.0" encoding="UTF-8"?>
<svg id="Layer_1" data-name="Layer 1" xmlns="http://www.w3.org/2000/svg" xmlns:xlink="http://www.w3.org/1999/xlink" viewBox="0 0 223 196">
  <defs>
    <style>
      .cls-1 {
        fill: none;
      }

      .cls-2 {
        fill: #fff;
      }

      .cls-3 {
        clip-path: url(#clippath);
      }
    </style>
    <clipPath id="clippath">
      <rect class="cls-1" x="22.15" y="8.65" width="178.69" height="178.69"/>
    </clipPath>
  </defs>
  <g class="cls-3">
    <path class="cls-2" d="M110.83,186.05c-48.92,0-88.72-39.8-88.72-88.72S61.91,8.61,110.83,8.61s88.72,39.8,88.72,88.72-39.8,88.72-88.72,88.72ZM110.83,17.36c-44.08,0-79.97,35.88-79.97,79.97s35.88,79.97,79.97,79.97,79.97-35.86,79.97-79.97S154.93,17.36,110.83,17.36Z"/>
  </g>
  <path class="cls-2" d="M137.96,78.06c0-1.15-1.13-2.49-1.87-2.96-.68-.4-2.09-.7-3.22-.43l-42.76,11.18c-1.64.43-2.79,1.92-2.79,3.6v3.3h-.02v31.26c.72,2.02.83,4.41.13,6.99-1.96,7.3-9.48,13.25-16.8,13.25s-11.65-5.94-9.69-13.25c1.96-7.33,9.48-13.27,16.8-13.27.09,0,.19.02.28.02l-.55-44.59c0-2.81,1.9-5.26,4.62-5.98l57.71-15.31c1.85-.51,3.83-.11,5.37,1.06,1.51,1.17,2.41,2.98,2.41,4.92l-.55,53.49c.49,1.83.47,3.94-.13,6.15-1.96,7.33-9.48,13.25-16.8,13.25s-11.65-5.92-9.69-13.25c1.96-7.3,9.48-13.25,16.8-13.25.17,0,.36.02.53.02l.23-26.22Z"/>
</svg>