<svg xmlns="http://www.w3.org/2000/svg" xmlns:xlink="http://www.w3.org/1999/xlink" width="816" zoomAndPan="magnify" viewBox="0 0 612 791.999994" height="1056" preserveAspectRatio="xMidYMid meet" version="1.0"><defs><clipPath id="718d52e7b6"><path d="M 42.347656 129.453125 L 569.597656 129.453125 L 569.597656 620.703125 L 42.347656 620.703125 Z M 42.347656 129.453125 " clip-rule="nonzero"/></clipPath></defs><g clip-path="url(#718d52e7b6)"><path fill="#ff4b89" d="M 559.523438 467.6875 C 551.015625 451.800781 550.832031 437.054688 557.335938 419.898438 C 565.925781 397.234375 571.109375 373.121094 552.585938 351.757812 C 546.734375 345.011719 551.964844 340.804688 555.105469 336.058594 C 569.652344 314.082031 571.171875 290.351562 560.492188 267.230469 C 539.191406 221.109375 507.703125 183.644531 461.019531 161.128906 C 424.945312 143.726562 386.976562 132.351562 346.789062 130.367188 C 304.914062 128.296875 263.726562 129.828125 222.246094 140.46875 C 190.164062 148.699219 158.820312 156.945312 130.617188 174.246094 C 89.902344 199.222656 60.160156 233.546875 46.523438 280.078125 C 40.5 300.628906 39.421875 321.371094 55.289062 338.726562 C 61.882812 345.933594 60.128906 350.3125 54.339844 357.085938 C 39.347656 374.625 38.917969 385.800781 50.21875 406.273438 C 51.832031 409.199219 53.808594 411.945312 55.199219 414.96875 C 64.171875 434.503906 69.128906 453.511719 53.558594 472.882812 C 35.65625 495.160156 41.410156 534.382812 62.425781 555.777344 C 81.71875 575.425781 104.4375 588.585938 130.234375 597.023438 C 186.796875 615.515625 245.117188 621.007812 309.335938 620.039062 C 351.273438 621.707031 397.765625 617.148438 443.652344 607.136719 C 477.921875 599.660156 510.347656 587.300781 538.386719 565.597656 C 570.378906 540.835938 578.527344 503.15625 559.523438 467.691406 Z M 69.523438 292.972656 C 73.140625 269.859375 83.796875 249.988281 98.722656 232.402344 C 127.464844 198.53125 164.824219 178.367188 207.253906 168.011719 C 273.675781 151.800781 340.429688 148.589844 407.386719 166.261719 C 464.882812 181.433594 508.371094 213.519531 534.261719 267.960938 C 554.722656 310.992188 544.09375 333.65625 497.402344 342.796875 C 452.699219 351.546875 407.105469 352.460938 361.792969 355.195312 C 337.15625 356.683594 312.355469 355.460938 287.628906 355.460938 C 233.503906 356.246094 179.347656 356.296875 125.738281 347.21875 C 116.558594 345.664062 107.3125 343.8125 98.515625 340.859375 C 75.28125 333.058594 65.773438 316.964844 69.527344 292.972656 Z M 68.101562 380.441406 C 71.144531 372.921875 76.179688 366.34375 85.503906 365.945312 C 88.78125 365.808594 92.136719 366.5 95.398438 367.117188 C 193.875 385.789062 293.191406 385.585938 392.695312 379.964844 C 434.660156 377.59375 476.613281 374.78125 517.46875 363.449219 C 527.433594 360.6875 539.367188 372.703125 540.589844 385.351562 C 541.644531 396.253906 536.539062 402.242188 524.277344 403.136719 C 515.640625 403.765625 506.925781 403.257812 498.25 403.257812 C 449.40625 404.453125 401.210938 410.160156 354.324219 424.53125 C 339.554688 429.058594 325.902344 436.1875 313.066406 444.6875 C 300.492188 453.015625 287.605469 454.125 275.828125 444.792969 C 241.800781 417.828125 200.925781 415.496094 160.457031 410.960938 C 137.9375 408.441406 115.167969 408.257812 92.855469 403.636719 C 86.839844 402.394531 81.09375 400.757812 76.367188 396.9375 C 71.207031 392.773438 64.976562 388.175781 68.105469 380.441406 Z M 207.320312 473.292969 C 213.769531 471.710938 220.160156 469.554688 226.257812 466.925781 C 237.992188 461.871094 250.027344 460.675781 261.050781 467.085938 C 286.378906 481.808594 310.109375 475.152344 333.171875 462.542969 C 343.800781 456.730469 351.671875 456.144531 364.015625 461.101562 C 387.445312 470.519531 413.152344 473.992188 438.738281 470.308594 C 455.609375 467.882812 468.9375 458.089844 475.980469 442.789062 C 481.859375 430.015625 490.496094 426.867188 502.953125 428.613281 C 506.238281 429.074219 509.628906 428.796875 512.96875 428.863281 C 531.835938 429.25 533.75 432.546875 524.4375 449.453125 C 517.03125 462.898438 505.320312 471.496094 491.546875 477.597656 C 464.433594 489.605469 435.867188 496.277344 406.546875 499.351562 C 375.316406 502.628906 343.984375 505.0625 312.488281 503.773438 C 252.363281 502.582031 192.289062 500.675781 134.046875 483.082031 C 127.039062 480.964844 120.292969 477.957031 113.261719 475.960938 C 93.203125 470.265625 87.664062 454.34375 84.835938 436.394531 C 84.261719 432.769531 85.214844 429.917969 89.015625 428.464844 C 98.457031 424.855469 114.484375 429.457031 121.347656 437.90625 C 124.714844 442.050781 127.796875 446.4375 131.292969 450.46875 C 151.792969 474.117188 177.582031 480.570312 207.320312 473.292969 Z M 147.410156 432.171875 C 170.816406 432.582031 192.421875 436.609375 217.871094 441.367188 C 190.175781 461.476562 163.558594 457.394531 147.410156 432.171875 Z M 381.800781 441.546875 C 405.527344 434.277344 429.273438 428.347656 458.035156 427.882812 C 450.621094 442.730469 441.089844 448.355469 428.457031 448.945312 C 412.601562 449.691406 397.234375 446.488281 381.800781 441.546875 Z M 526.902344 544.058594 C 513.011719 557.140625 496.0625 564.820312 478.4375 571.457031 C 420.660156 593.222656 360.199219 595.449219 299.609375 596.46875 C 247.070312 598.273438 195.335938 590.992188 144.839844 578.382812 C 123.050781 572.941406 101.121094 562.34375 83.886719 545.902344 C 72.878906 535.402344 65.648438 522.589844 66.332031 506.898438 C 66.992188 491.816406 76.613281 485.925781 90.710938 491.746094 C 147.8125 515.316406 208.03125 523.351562 268.964844 525.890625 C 323.691406 528.171875 378.550781 529.238281 432.914062 519.109375 C 464.058594 513.308594 493.878906 504.210938 521.386719 488.199219 C 524.269531 486.523438 527.257812 484.984375 530.328125 483.691406 C 539.355469 479.878906 542.078125 481.117188 543.679688 490.953125 C 547 511.363281 542.332031 529.523438 526.902344 544.054688 Z M 526.902344 544.058594 " fill-opacity="1" fill-rule="nonzero"/></g><path fill="#ff4b89" d="M 393.898438 250.273438 C 401.007812 254.667969 406.671875 252.023438 408.800781 243.847656 C 412.222656 230.695312 398.6875 212.5 385.324219 212.285156 C 376.617188 212.148438 370.023438 219.292969 373.609375 226.050781 C 378.582031 235.414062 384.539062 244.488281 393.898438 250.273438 Z M 393.898438 250.273438 " fill-opacity="1" fill-rule="nonzero"/><path fill="#ff4b89" d="M 279.457031 233.929688 C 285.582031 233.808594 296.613281 219.617188 296.644531 211.820312 C 296.667969 205.789062 289.882812 199.347656 283.523438 199.359375 C 275.808594 199.375 263.554688 211.332031 263.601562 218.789062 C 263.644531 225.621094 272.488281 234.066406 279.453125 233.929688 Z M 279.457031 233.929688 " fill-opacity="1" fill-rule="nonzero"/><path fill="#ff4b89" d="M 319.113281 302.1875 C 327.03125 302.695312 333.25 297.050781 333.574219 289.066406 C 333.945312 279.910156 328.339844 271.890625 321.003906 271.074219 C 312.992188 270.1875 304.9375 277.332031 304.871094 285.382812 C 304.804688 293.652344 311.636719 301.710938 319.113281 302.1875 Z M 319.113281 302.1875 " fill-opacity="1" fill-rule="nonzero"/><path fill="#ff4b89" d="M 206.191406 268.757812 C 214.933594 268.789062 219.496094 264.117188 219.59375 255.015625 C 219.699219 245.445312 214.136719 238.761719 205.894531 238.570312 C 198.320312 238.390625 192.292969 244.621094 192.253906 252.664062 C 192.210938 262.292969 197.78125 268.726562 206.191406 268.757812 Z M 206.191406 268.757812 " fill-opacity="1" fill-rule="nonzero"/></svg>