<svg xmlns="http://www.w3.org/2000/svg" xmlns:xlink="http://www.w3.org/1999/xlink" width="421" zoomAndPan="magnify" viewBox="0 0 315.75 317.999988" height="424" preserveAspectRatio="xMidYMid meet" version="1.0"><defs><clipPath id="82cb2daa73"><path d="M 0 0.125 L 315.082031 0.125 L 315.082031 317.667969 L 0 317.667969 Z M 0 0.125 " clip-rule="nonzero"/></clipPath><clipPath id="662a6cba06"><path d="M 14.238281 0.125 L 300.84375 0.125 C 304.617188 0.125 308.242188 1.625 310.910156 4.296875 C 313.582031 6.964844 315.082031 10.589844 315.082031 14.363281 L 315.082031 303.0625 C 315.082031 306.839844 313.582031 310.460938 310.910156 313.132812 C 308.242188 315.804688 304.617188 317.304688 300.84375 317.304688 L 14.238281 317.304688 C 10.460938 317.304688 6.839844 315.804688 4.171875 313.132812 C 1.5 310.460938 0 306.839844 0 303.0625 L 0 14.363281 C 0 10.589844 1.5 6.964844 4.171875 4.296875 C 6.839844 1.625 10.460938 0.125 14.238281 0.125 Z M 14.238281 0.125 " clip-rule="nonzero"/></clipPath><clipPath id="ac094c4f25"><path d="M 0 0.125 L 315.082031 0.125 L 315.082031 317.394531 L 0 317.394531 Z M 0 0.125 " clip-rule="nonzero"/></clipPath><clipPath id="12cc5409e8"><path d="M 14.238281 0.125 L 300.84375 0.125 C 304.617188 0.125 308.242188 1.625 310.910156 4.296875 C 313.582031 6.964844 315.082031 10.589844 315.082031 14.363281 L 315.082031 303.0625 C 315.082031 306.839844 313.582031 310.460938 310.910156 313.132812 C 308.242188 315.804688 304.617188 317.304688 300.84375 317.304688 L 14.238281 317.304688 C 10.460938 317.304688 6.839844 315.804688 4.171875 313.132812 C 1.5 310.460938 0 306.839844 0 303.0625 L 0 14.363281 C 0 10.589844 1.5 6.964844 4.171875 4.296875 C 6.839844 1.625 10.460938 0.125 14.238281 0.125 Z M 14.238281 0.125 " clip-rule="nonzero"/></clipPath><clipPath id="c9d094ca69"><rect x="0" width="316" y="0" height="318"/></clipPath><clipPath id="8c3cdae6dd"><path d="M 85.828125 19.578125 L 228.964844 19.578125 L 228.964844 152.972656 L 85.828125 152.972656 Z M 85.828125 19.578125 " clip-rule="nonzero"/></clipPath></defs><g clip-path="url(#82cb2daa73)"><g clip-path="url(#662a6cba06)"><g transform="matrix(1, 0, 0, 1, 0, 0.000000000000041717)"><g clip-path="url(#c9d094ca69)"><g clip-path="url(#ac094c4f25)"><g clip-path="url(#12cc5409e8)"><path fill="#203354" d="M 0 0.125 L 315.082031 0.125 L 315.082031 317.667969 L 0 317.667969 Z M 0 0.125 " fill-opacity="1" fill-rule="nonzero"/></g></g></g></g></g></g><g clip-path="url(#8c3cdae6dd)"><path fill="#ff4b89" d="M 226.550781 111.609375 C 224.234375 107.289062 224.183594 103.277344 225.953125 98.609375 C 228.289062 92.441406 229.703125 85.878906 224.660156 80.066406 C 223.070312 78.230469 224.492188 77.085938 225.347656 75.796875 C 229.304688 69.816406 229.71875 63.359375 226.8125 57.066406 C 221.015625 44.519531 212.449219 34.324219 199.746094 28.199219 C 189.929688 23.460938 179.601562 20.367188 168.664062 19.828125 C 157.269531 19.265625 146.0625 19.679688 134.777344 22.574219 C 126.046875 24.816406 117.519531 27.058594 109.84375 31.765625 C 98.765625 38.5625 90.675781 47.902344 86.964844 60.5625 C 85.324219 66.15625 85.03125 71.800781 89.347656 76.519531 C 91.140625 78.480469 90.664062 79.675781 89.089844 81.515625 C 85.011719 86.289062 84.894531 89.332031 87.96875 94.898438 C 88.40625 95.695312 88.945312 96.445312 89.324219 97.265625 C 91.765625 102.582031 93.113281 107.753906 88.878906 113.023438 C 84.007812 119.085938 85.574219 129.757812 91.289062 135.582031 C 96.539062 140.925781 102.722656 144.507812 109.742188 146.804688 C 125.132812 151.835938 141 153.328125 158.472656 153.066406 C 169.886719 153.519531 182.535156 152.277344 195.019531 149.554688 C 204.34375 147.519531 213.167969 144.15625 220.796875 138.253906 C 229.503906 131.515625 231.71875 121.261719 226.550781 111.613281 Z M 93.222656 64.070312 C 94.207031 57.78125 97.105469 52.375 101.167969 47.589844 C 108.988281 38.375 119.152344 32.886719 130.699219 30.070312 C 148.769531 25.660156 166.933594 24.785156 185.152344 29.59375 C 200.796875 33.722656 212.632812 42.453125 219.675781 57.265625 C 225.242188 68.976562 222.351562 75.140625 209.644531 77.628906 C 197.484375 80.007812 185.078125 80.257812 172.746094 81.003906 C 166.042969 81.40625 159.296875 81.074219 152.566406 81.074219 C 137.839844 81.289062 123.105469 81.300781 108.515625 78.832031 C 106.019531 78.410156 103.503906 77.90625 101.109375 77.101562 C 94.789062 74.980469 92.203125 70.601562 93.222656 64.070312 Z M 92.835938 87.871094 C 93.664062 85.824219 95.03125 84.035156 97.570312 83.929688 C 98.460938 83.890625 99.375 84.078125 100.261719 84.246094 C 127.058594 89.328125 154.082031 89.273438 181.15625 87.742188 C 192.574219 87.097656 203.988281 86.332031 215.105469 83.25 C 217.816406 82.496094 221.066406 85.765625 221.398438 89.207031 C 221.683594 92.175781 220.296875 93.804688 216.957031 94.046875 C 214.609375 94.21875 212.238281 94.082031 209.875 94.082031 C 196.585938 94.40625 183.472656 95.957031 170.714844 99.867188 C 166.695312 101.101562 162.980469 103.039062 159.488281 105.351562 C 156.066406 107.621094 152.5625 107.921875 149.355469 105.382812 C 140.097656 98.042969 128.976562 97.410156 117.964844 96.175781 C 111.835938 95.492188 105.640625 95.441406 99.570312 94.183594 C 97.933594 93.84375 96.371094 93.398438 95.082031 92.359375 C 93.679688 91.226562 91.984375 89.976562 92.835938 87.871094 Z M 130.714844 113.136719 C 132.472656 112.707031 134.210938 112.121094 135.867188 111.40625 C 139.0625 110.027344 142.335938 109.703125 145.335938 111.449219 C 152.226562 115.453125 158.683594 113.640625 164.960938 110.210938 C 167.851562 108.628906 169.992188 108.46875 173.351562 109.820312 C 179.726562 112.382812 186.722656 113.328125 193.683594 112.324219 C 198.273438 111.664062 201.902344 109 203.816406 104.835938 C 205.417969 101.359375 207.765625 100.503906 211.15625 100.980469 C 212.050781 101.105469 212.972656 101.027344 213.882812 101.046875 C 219.015625 101.152344 219.535156 102.050781 217.003906 106.648438 C 214.988281 110.308594 211.800781 112.648438 208.054688 114.308594 C 200.675781 117.574219 192.902344 119.390625 184.925781 120.226562 C 176.425781 121.117188 167.902344 121.78125 159.332031 121.429688 C 142.972656 121.105469 126.625 120.585938 110.777344 115.800781 C 108.871094 115.222656 107.035156 114.40625 105.121094 113.863281 C 99.664062 112.3125 98.15625 107.980469 97.386719 103.097656 C 97.230469 102.109375 97.492188 101.335938 98.523438 100.9375 C 101.09375 99.957031 105.457031 101.207031 107.324219 103.507812 C 108.238281 104.636719 109.078125 105.828125 110.027344 106.925781 C 115.605469 113.359375 122.625 115.117188 130.714844 113.136719 Z M 114.414062 101.949219 C 120.785156 102.058594 126.664062 103.15625 133.585938 104.449219 C 126.050781 109.921875 118.808594 108.808594 114.414062 101.949219 Z M 178.191406 104.5 C 184.648438 102.519531 191.109375 100.90625 198.933594 100.78125 C 196.917969 104.820312 194.324219 106.351562 190.886719 106.511719 C 186.574219 106.714844 182.390625 105.84375 178.191406 104.5 Z M 217.671875 132.390625 C 213.894531 135.953125 209.28125 138.039062 204.484375 139.847656 C 188.765625 145.769531 172.3125 146.375 155.828125 146.652344 C 141.53125 147.144531 127.453125 145.164062 113.714844 141.730469 C 107.785156 140.25 101.820312 137.367188 97.128906 132.894531 C 94.136719 130.035156 92.167969 126.550781 92.355469 122.28125 C 92.53125 118.175781 95.152344 116.574219 98.988281 118.15625 C 114.523438 124.570312 130.910156 126.757812 147.488281 127.449219 C 162.378906 128.070312 177.308594 128.359375 192.097656 125.601562 C 200.574219 124.023438 208.6875 121.546875 216.171875 117.191406 C 216.957031 116.738281 217.769531 116.316406 218.605469 115.964844 C 221.0625 114.929688 221.804688 115.265625 222.238281 117.941406 C 223.140625 123.496094 221.871094 128.4375 217.671875 132.390625 Z M 217.671875 132.390625 " fill-opacity="1" fill-rule="nonzero"/></g><path fill="#ff4b89" d="M 181.484375 52.453125 C 183.417969 53.648438 184.960938 52.929688 185.539062 50.703125 C 186.46875 47.125 182.785156 42.175781 179.148438 42.117188 C 176.78125 42.078125 174.988281 44.023438 175.964844 45.863281 C 177.316406 48.410156 178.9375 50.878906 181.484375 52.453125 Z M 181.484375 52.453125 " fill-opacity="1" fill-rule="nonzero"/><path fill="#ff4b89" d="M 150.34375 48.007812 C 152.011719 47.972656 155.011719 44.113281 155.019531 41.992188 C 155.027344 40.347656 153.179688 38.597656 151.449219 38.601562 C 149.351562 38.605469 146.015625 41.855469 146.03125 43.886719 C 146.042969 45.746094 148.449219 48.042969 150.34375 48.007812 Z M 150.34375 48.007812 " fill-opacity="1" fill-rule="nonzero"/><path fill="#ff4b89" d="M 161.132812 66.578125 C 163.289062 66.71875 164.980469 65.179688 165.070312 63.007812 C 165.171875 60.519531 163.644531 58.335938 161.648438 58.113281 C 159.46875 57.871094 157.277344 59.816406 157.257812 62.007812 C 157.242188 64.257812 159.101562 66.449219 161.132812 66.578125 Z M 161.132812 66.578125 " fill-opacity="1" fill-rule="nonzero"/><path fill="#ff4b89" d="M 130.410156 57.484375 C 132.789062 57.492188 134.027344 56.21875 134.054688 53.742188 C 134.085938 51.140625 132.570312 49.320312 130.328125 49.269531 C 128.265625 49.21875 126.628906 50.914062 126.617188 53.101562 C 126.605469 55.722656 128.121094 57.472656 130.410156 57.484375 Z M 130.410156 57.484375 " fill-opacity="1" fill-rule="nonzero"/></svg>