<svg xmlns="http://www.w3.org/2000/svg" xmlns:xlink="http://www.w3.org/1999/xlink" width="421" zoomAndPan="magnify" viewBox="0 0 315.75 317.999988" height="424" preserveAspectRatio="xMidYMid meet" version="1.0"><defs><clipPath id="3a76af25e2"><path d="M 0 0.125 L 315.082031 0.125 L 315.082031 317.667969 L 0 317.667969 Z M 0 0.125 " clip-rule="nonzero"/></clipPath><clipPath id="66e04031d1"><path d="M 14.238281 0.125 L 300.84375 0.125 C 304.617188 0.125 308.242188 1.625 310.910156 4.296875 C 313.582031 6.964844 315.082031 10.589844 315.082031 14.363281 L 315.082031 303.0625 C 315.082031 306.839844 313.582031 310.460938 310.910156 313.132812 C 308.242188 315.804688 304.617188 317.304688 300.84375 317.304688 L 14.238281 317.304688 C 10.460938 317.304688 6.839844 315.804688 4.171875 313.132812 C 1.5 310.460938 0 306.839844 0 303.0625 L 0 14.363281 C 0 10.589844 1.5 6.964844 4.171875 4.296875 C 6.839844 1.625 10.460938 0.125 14.238281 0.125 Z M 14.238281 0.125 " clip-rule="nonzero"/></clipPath><clipPath id="c74feb35c8"><path d="M 0 0.125 L 315.082031 0.125 L 315.082031 317.394531 L 0 317.394531 Z M 0 0.125 " clip-rule="nonzero"/></clipPath><clipPath id="f95b011304"><path d="M 14.238281 0.125 L 300.84375 0.125 C 304.617188 0.125 308.242188 1.625 310.910156 4.296875 C 313.582031 6.964844 315.082031 10.589844 315.082031 14.363281 L 315.082031 303.0625 C 315.082031 306.839844 313.582031 310.460938 310.910156 313.132812 C 308.242188 315.804688 304.617188 317.304688 300.84375 317.304688 L 14.238281 317.304688 C 10.460938 317.304688 6.839844 315.804688 4.171875 313.132812 C 1.5 310.460938 0 306.839844 0 303.0625 L 0 14.363281 C 0 10.589844 1.5 6.964844 4.171875 4.296875 C 6.839844 1.625 10.460938 0.125 14.238281 0.125 Z M 14.238281 0.125 " clip-rule="nonzero"/></clipPath><clipPath id="cd3c1597f8"><rect x="0" width="316" y="0" height="318"/></clipPath><clipPath id="3d3058aead"><path d="M 85.796875 14.644531 L 228.933594 14.644531 L 228.933594 157.78125 L 85.796875 157.78125 Z M 85.796875 14.644531 " clip-rule="nonzero"/></clipPath></defs><g clip-path="url(#3a76af25e2)"><g clip-path="url(#66e04031d1)"><g transform="matrix(1, 0, 0, 1, 0, 0.000000000000041717)"><g clip-path="url(#cd3c1597f8)"><g clip-path="url(#c74feb35c8)"><g clip-path="url(#f95b011304)"><path fill="#203354" d="M 0 0.125 L 315.082031 0.125 L 315.082031 317.667969 L 0 317.667969 Z M 0 0.125 " fill-opacity="1" fill-rule="nonzero"/></g></g></g></g></g></g><g clip-path="url(#3d3058aead)"><path fill="#ff4b89" d="M 157.480469 158.042969 C 117.933594 158.042969 85.757812 125.871094 85.757812 86.324219 C 85.757812 46.777344 117.933594 14.605469 157.480469 14.605469 C 197.023438 14.605469 229.195312 46.777344 229.195312 86.324219 C 229.195312 125.871094 197.023438 158.042969 157.480469 158.042969 Z M 157.480469 21.675781 C 121.832031 21.675781 92.832031 50.679688 92.832031 86.324219 C 92.832031 121.96875 121.832031 150.96875 157.480469 150.96875 C 193.125 150.96875 222.125 121.96875 222.125 86.324219 C 222.125 50.679688 193.125 21.675781 157.480469 21.675781 Z M 157.480469 21.675781 " fill-opacity="1" fill-rule="nonzero"/></g><path fill="#ff4b89" d="M 179.410156 70.734375 C 179.410156 69.804688 178.5 68.722656 177.894531 68.355469 C 177.332031 68.015625 176.199219 67.773438 175.292969 68.007812 L 140.71875 77.042969 C 139.394531 77.390625 138.46875 78.585938 138.46875 79.957031 L 138.46875 82.621094 L 138.457031 82.625 L 138.457031 107.890625 C 139.035156 109.527344 139.121094 111.457031 138.5625 113.53125 C 136.976562 119.449219 130.894531 124.242188 124.980469 124.242188 C 119.0625 124.242188 115.554688 119.449219 117.136719 113.53125 C 118.722656 107.613281 124.804688 102.816406 130.722656 102.816406 C 130.796875 102.816406 130.871094 102.828125 130.949219 102.832031 L 130.507812 66.777344 C 130.507812 64.507812 132.03125 62.523438 134.226562 61.941406 L 180.886719 49.558594 C 182.390625 49.160156 183.992188 49.484375 185.21875 50.429688 C 186.453125 51.378906 187.175781 52.84375 187.175781 54.394531 L 186.726562 97.640625 C 187.113281 99.132812 187.109375 100.828125 186.625 102.628906 C 185.039062 108.542969 178.960938 113.339844 173.042969 113.339844 C 167.125 113.339844 163.617188 108.542969 165.199219 102.628906 C 166.785156 96.710938 172.867188 91.914062 178.785156 91.914062 C 178.933594 91.914062 179.074219 91.933594 179.21875 91.9375 Z M 179.410156 70.734375 " fill-opacity="1" fill-rule="nonzero"/></svg>