<?xml version="1.0" encoding="UTF-8"?>
<svg id="Layer_1" data-name="Layer 1" xmlns="http://www.w3.org/2000/svg" xmlns:xlink="http://www.w3.org/1999/xlink" viewBox="0 0 223 196">
  <defs>
    <style>
      .cls-1 {
        fill: none;
      }

      .cls-2 {
        fill: #fff;
        fill-rule: evenodd;
      }

      .cls-3 {
        clip-path: url(#clippath);
      }
    </style>
    <clipPath id="clippath">
      <rect class="cls-1" x="10.9" y="29.09" width="201.19" height="137.82"/>
    </clipPath>
  </defs>
  <g class="cls-3">
    <path class="cls-2" d="M13.69,143.16c-.69,0-1.36-.27-1.85-.77s-.77-1.16-.77-1.85.27-1.36.77-1.85,1.16-.77,1.85-.77c3.86.3,7.6,1.47,10.94,3.43,2.6,1.53,5.51,2.51,8.51,2.86,3.01-.35,5.9-1.33,8.51-2.86,3.34-1.95,7.08-3.12,10.94-3.43,3.86.3,7.6,1.47,10.94,3.43,2.62,1.53,5.51,2.51,8.51,2.86,3.01-.35,5.91-1.33,8.51-2.86,3.34-1.95,7.08-3.12,10.94-3.43,3.86.3,7.6,1.47,10.94,3.44,2.62,1.53,5.51,2.5,8.51,2.86,3.01-.36,5.91-1.33,8.51-2.86,3.34-1.97,7.08-3.14,10.95-3.44,3.86.3,7.6,1.47,10.94,3.43,2.6,1.53,5.51,2.51,8.51,2.86,3.01-.35,5.9-1.33,8.51-2.86,3.34-1.95,7.08-3.12,10.94-3.43,3.86.3,7.6,1.47,10.94,3.43,2.62,1.55,5.51,2.51,8.51,2.88,3.01-.36,5.91-1.33,8.51-2.86,3.34-1.97,7.08-3.14,10.94-3.44.69,0,1.36.27,1.85.77s.77,1.16.77,1.85-.27,1.36-.77,1.85-1.16.77-1.85.77c-3.01.35-5.9,1.32-8.51,2.86-3.34,1.95-7.08,3.12-10.94,3.43-3.86-.3-7.6-1.47-10.94-3.43-2.6-1.55-5.51-2.51-8.51-2.86-3.01.35-5.91,1.32-8.51,2.86-3.34,1.95-7.08,3.12-10.94,3.43-3.86-.3-7.6-1.47-10.95-3.43-2.6-1.55-5.49-2.51-8.5-2.86-3.01.35-5.91,1.32-8.51,2.86-3.34,1.95-7.08,3.12-10.95,3.43-3.86-.3-7.6-1.47-10.94-3.43-2.6-1.55-5.51-2.51-8.51-2.86-3.01.35-5.9,1.32-8.51,2.86-3.34,1.95-7.08,3.12-10.94,3.43-3.86-.3-7.6-1.47-10.94-3.43-2.6-1.55-5.51-2.51-8.51-2.86-3.01.35-5.91,1.32-8.51,2.86-3.34,1.95-7.08,3.12-10.94,3.43-3.86-.3-7.6-1.47-10.94-3.43-2.62-1.55-5.51-2.51-8.51-2.86ZM13.69,161.82c-.36.03-.72-.03-1.06-.14-.33-.13-.65-.32-.91-.56-.26-.23-.46-.53-.61-.87-.14-.32-.22-.68-.22-1.04s.07-.71.22-1.03c.14-.33.35-.64.61-.88.26-.23.58-.42.91-.55.33-.12.69-.17,1.06-.14,3.86.3,7.6,1.47,10.94,3.43,2.6,1.55,5.51,2.51,8.51,2.86,3.01-.35,5.9-1.32,8.51-2.86,3.34-1.95,7.08-3.12,10.94-3.43,3.86.3,7.6,1.47,10.94,3.43,2.62,1.55,5.51,2.51,8.51,2.86,3.01-.35,5.91-1.32,8.51-2.86,3.34-1.95,7.08-3.12,10.94-3.43,3.86.3,7.6,1.47,10.94,3.43,2.62,1.55,5.51,2.51,8.51,2.86,3.01-.35,5.91-1.32,8.51-2.86,3.34-1.95,7.08-3.12,10.95-3.43,3.86.3,7.6,1.47,10.94,3.43,2.6,1.55,5.51,2.51,8.51,2.86,3.01-.35,5.9-1.32,8.51-2.86,3.34-1.95,7.08-3.12,10.94-3.43,3.86.3,7.6,1.47,10.94,3.43,2.62,1.55,5.51,2.51,8.51,2.86,3.01-.35,5.91-1.33,8.51-2.86,3.34-1.95,7.08-3.12,10.94-3.43.36-.03.72.03,1.06.14s.65.3.91.55.46.55.61.87c.14.33.22.69.22,1.04s-.07.72-.22,1.04c-.14.33-.35.62-.61.87s-.58.43-.91.56c-.33.12-.69.16-1.06.14-3.01.35-5.9,1.32-8.51,2.86-3.34,1.95-7.08,3.12-10.94,3.43-3.86-.3-7.6-1.47-10.94-3.43-2.6-1.55-5.51-2.51-8.51-2.86-3.01.35-5.91,1.32-8.51,2.86-3.34,1.95-7.08,3.12-10.94,3.43-3.86-.3-7.6-1.47-10.95-3.43-2.6-1.55-5.49-2.51-8.5-2.86-3.01.35-5.91,1.32-8.51,2.86-3.34,1.95-7.08,3.12-10.95,3.43-3.86-.3-7.6-1.47-10.94-3.43-2.6-1.55-5.51-2.51-8.51-2.86-3.01.35-5.9,1.32-8.51,2.86-3.34,1.95-7.08,3.12-10.94,3.43-3.86-.3-7.6-1.47-10.94-3.43-2.6-1.55-5.51-2.51-8.51-2.86-3.01.35-5.91,1.32-8.51,2.86-3.34,1.95-7.08,3.12-10.94,3.43-3.86-.3-7.6-1.47-10.94-3.43-2.62-1.55-5.51-2.51-8.51-2.86ZM156.66,123.55c.65-2.05,1.14-4.15,1.49-6.27.39-2.38.58-4.78.56-7.2,0-25.41-21.38-46.02-47.75-46.02-12.57-.04-24.67,4.78-33.76,13.48-5.29,5.03-9.28,11.27-11.62,18.2s-2.95,14.31-1.79,21.52c.33,2.12.84,4.22,1.49,6.27,2.1,1.14,4.39,1.84,6.78,2.02,3.01-.35,5.9-1.32,8.51-2.86,3.34-1.95,7.08-3.12,10.94-3.43,3.86.3,7.6,1.47,10.94,3.43,2.62,1.55,5.51,2.51,8.51,2.86,3.01-.35,5.91-1.32,8.51-2.86,3.34-1.95,7.08-3.12,10.95-3.43,3.86.3,7.6,1.47,10.94,3.43,2.6,1.55,5.51,2.51,8.51,2.86,2.37-.19,4.68-.88,6.76-2.02h.01ZM58.93,120.62c-.17-.84-.33-1.69-.48-2.56-1.32-8.02-.64-16.24,1.97-23.95s7.05-14.65,12.95-20.25c10.12-9.68,23.6-15.06,37.59-15,29.37,0,53.16,22.94,53.16,51.23,0,2.67-.22,5.33-.65,7.98-.14.87-.3,1.72-.48,2.56,2.01-.84,4.16-1.3,6.33-1.34,3.86.29,7.6,1.47,10.94,3.43,2.62,1.53,5.51,2.51,8.51,2.86,3.01-.35,5.91-1.33,8.51-2.86,3.35-1.95,7.08-3.14,10.95-3.43.69,0,1.36.27,1.84.77.49.49.77,1.16.77,1.85s-.27,1.36-.77,1.84c-.48.49-1.14.77-1.84.77-3.01.36-5.91,1.33-8.51,2.86-3.34,1.97-7.08,3.14-10.95,3.44-3.86-.3-7.6-1.47-10.94-3.44-2.6-1.53-5.49-2.51-8.5-2.88-3.01.35-5.91,1.33-8.51,2.86-3.34,1.95-7.08,3.14-10.94,3.43-3.86-.29-7.6-1.47-10.95-3.43-2.6-1.53-5.49-2.51-8.5-2.86-3.01.35-5.91,1.33-8.51,2.86-3.34,1.95-7.08,3.14-10.95,3.43-3.86-.29-7.6-1.47-10.94-3.43-2.6-1.53-5.51-2.51-8.51-2.86-3.01.35-5.9,1.33-8.51,2.86-3.34,1.95-7.08,3.14-10.94,3.43-3.86-.29-7.6-1.47-10.94-3.43-2.6-1.53-5.51-2.51-8.51-2.86-3.01.35-5.91,1.33-8.51,2.86-3.34,1.95-7.08,3.14-10.94,3.43-3.86-.29-7.6-1.47-10.94-3.43-2.62-1.53-5.51-2.51-8.51-2.86-.69,0-1.36-.27-1.85-.77s-.77-1.16-.77-1.85.27-1.36.77-1.85,1.16-.77,1.85-.77c3.86.3,7.6,1.47,10.94,3.44,2.6,1.53,5.51,2.5,8.51,2.86,3.01-.36,5.9-1.33,8.51-2.86,3.34-1.97,7.08-3.14,10.94-3.44,2.18.06,4.32.51,6.33,1.36ZM113.68,42.66c-.03.69-.33,1.36-.84,1.85-.51.48-1.17.75-1.88.75s-1.37-.27-1.86-.75c-.51-.49-.81-1.16-.84-1.85v-10.93c.03-.69.33-1.36.84-1.84.49-.49,1.17-.77,1.86-.77s1.37.27,1.88.77c.51.48.81,1.14.84,1.84v10.93ZM78.32,50.39c.17.29.29.62.33.95.04.35.03.69-.07,1.03-.09.33-.25.65-.46.91-.22.27-.48.49-.78.66-.62.35-1.36.45-2.05.26-.68-.17-1.29-.61-1.65-1.21l-5.67-9.45c-.19-.3-.3-.62-.35-.97s-.01-.69.07-1.03c.09-.33.25-.64.46-.91.22-.26.49-.49.79-.65.62-.35,1.34-.45,2.04-.27.68.19,1.27.62,1.65,1.21l5.67,9.47h.01ZM51.73,74.12l-9.81-5.45c-.61-.36-1.34-.45-2.02-.27-.69.17-1.29.61-1.66,1.21-.17.3-.29.62-.33.97-.06.35-.03.69.06,1.03.1.33.26.64.48.91s.48.49.78.65l9.8,5.46c.62.35,1.36.45,2.04.26.69-.17,1.29-.61,1.66-1.21.17-.29.29-.62.33-.97.04-.33.03-.68-.07-1.01-.09-.33-.25-.65-.46-.91-.22-.27-.48-.51-.78-.66ZM41.01,107.48h-11.33c-.36-.01-.71.04-1.03.17-.33.12-.64.32-.88.55-.26.25-.46.53-.59.87-.14.32-.22.66-.22,1.01s.07.69.22,1.03c.13.32.33.61.59.85.25.25.55.43.88.56.32.12.66.17,1.03.16h11.33c.35.01.69-.04,1.03-.16.32-.13.62-.32.88-.56.25-.25.45-.53.59-.85.13-.33.2-.68.2-1.03s-.07-.69-.2-1.01c-.14-.33-.35-.62-.59-.87-.26-.23-.56-.43-.88-.55-.33-.13-.68-.19-1.03-.17ZM180.92,112.68h11.33c.36.01.71-.04,1.03-.16.33-.13.64-.32.88-.56.26-.25.46-.53.59-.85.14-.33.22-.68.22-1.03s-.07-.69-.22-1.01c-.13-.33-.33-.62-.59-.87-.25-.23-.55-.43-.88-.55-.32-.13-.66-.19-1.03-.17h-11.33c-.35-.01-.69.04-1.03.17-.32.12-.62.32-.88.55-.25.25-.45.53-.58.87-.14.32-.22.66-.22,1.01s.07.69.22,1.03c.13.32.33.61.58.85.26.25.56.43.88.56.33.12.68.17,1.03.16ZM172.9,78.62l9.8-5.45c.3-.17.58-.39.79-.65.22-.27.38-.58.46-.91.1-.33.12-.68.07-1.03s-.16-.66-.33-.97c-.38-.61-.97-1.04-1.65-1.21-.69-.17-1.42-.09-2.04.26l-9.8,5.45c-.3.16-.58.38-.79.65-.2.27-.36.58-.46.91-.09.33-.12.68-.07,1.03.04.33.16.66.33.97.38.59.97,1.03,1.65,1.21.69.17,1.42.09,2.04-.26ZM148.27,53c-.38.61-.97,1.04-1.65,1.21-.69.17-1.42.09-2.04-.26-.3-.17-.58-.39-.78-.66-.22-.26-.38-.58-.48-.91-.09-.33-.12-.68-.07-1.01.06-.35.17-.68.35-.97l5.67-9.47c.38-.61.97-1.04,1.66-1.21.68-.17,1.42-.09,2.04.27.3.16.58.39.78.65.22.27.38.58.48.91.09.33.12.68.07,1.03-.06.35-.17.66-.35.97l-5.67,9.45h-.01Z"/>
  </g>
</svg>