<svg xmlns="http://www.w3.org/2000/svg" xmlns:xlink="http://www.w3.org/1999/xlink" width="816" zoomAndPan="magnify" viewBox="0 0 612 791.999994" height="1056" preserveAspectRatio="xMidYMid meet" version="1.0"><defs><clipPath id="b98f19ec56"><path d="M 35 163.824219 L 577 163.824219 L 577 496 L 35 496 Z M 35 163.824219 " clip-rule="nonzero"/></clipPath></defs><g clip-path="url(#b98f19ec56)"><path fill="#f2d72a" d="M 565.898438 423.742188 L 438.136719 423.742188 C 437.289062 412.8125 435.109375 402.261719 431.765625 392.230469 L 509.628906 359.371094 C 514.890625 357.152344 517.355469 351.089844 515.136719 345.828125 C 512.917969 340.566406 506.855469 338.097656 501.59375 340.316406 L 423.699219 373.1875 C 419 364.132812 413.28125 355.683594 406.703125 348 L 497.089844 257.613281 C 501.128906 253.574219 501.128906 247.03125 497.089844 242.988281 C 493.050781 238.949219 486.503906 238.949219 482.464844 242.988281 L 392.078125 333.386719 C 383.953125 326.429688 374.972656 320.441406 365.328125 315.589844 L 397.160156 237.269531 C 399.3125 231.980469 396.761719 225.945312 391.46875 223.800781 C 386.179688 221.648438 380.152344 224.199219 378 229.492188 L 346.175781 307.78125 C 336.648438 304.746094 326.65625 302.75 316.335938 301.949219 L 316.335938 174.1875 C 316.335938 168.476562 311.703125 163.84375 305.992188 163.84375 C 300.28125 163.84375 295.648438 168.476562 295.648438 174.1875 L 295.648438 301.941406 C 284.71875 302.789062 274.167969 304.96875 264.136719 308.3125 L 231.292969 230.457031 C 229.074219 225.195312 223.011719 222.730469 217.75 224.949219 C 212.488281 227.167969 210.019531 233.230469 212.238281 238.492188 L 245.105469 316.386719 C 236.050781 321.085938 227.605469 326.804688 219.921875 333.386719 L 129.535156 242.996094 C 125.496094 238.957031 118.949219 238.957031 114.910156 242.996094 C 110.871094 247.035156 110.871094 253.582031 114.910156 257.621094 L 205.296875 348.007812 C 198.34375 356.132812 192.355469 365.113281 187.503906 374.757812 L 109.183594 342.925781 C 103.890625 340.773438 97.867188 343.324219 95.714844 348.617188 C 93.5625 353.90625 96.113281 359.941406 101.402344 362.085938 L 179.695312 393.910156 C 176.660156 403.4375 174.664062 413.429688 173.863281 423.75 L 46.101562 423.75 C 40.390625 423.75 35.757812 428.382812 35.757812 434.09375 C 35.757812 439.804688 40.390625 444.4375 46.101562 444.4375 L 173.855469 444.4375 C 175.265625 462.644531 180.375 479.832031 188.425781 495.25 C 195.40625 493.757812 202.34375 492.0625 209.226562 490.160156 C 199.632812 473.664062 194.128906 454.511719 194.128906 434.09375 C 194.128906 372.414062 244.3125 322.230469 305.992188 322.230469 C 367.671875 322.230469 417.855469 372.414062 417.855469 434.09375 C 417.855469 454.21875 412.511719 473.121094 403.164062 489.457031 C 411.242188 488.351562 419.265625 486.75 427.140625 484.628906 C 427.667969 484.484375 428.183594 484.320312 428.699219 484.179688 C 433.789062 471.757812 437.050781 458.394531 438.128906 444.4375 L 565.882812 444.4375 C 571.59375 444.4375 576.226562 439.804688 576.226562 434.09375 C 576.234375 428.375 571.609375 423.742188 565.898438 423.742188 Z M 565.898438 423.742188 " fill-opacity="1" fill-rule="nonzero"/></g><path fill="#4fc1c8" d="M 390.0625 566.628906 C 374.816406 566.628906 359.578125 563.261719 345.382812 556.53125 L 323.757812 546.277344 C 300.410156 535.207031 273.753906 535.46875 250.625 547.003906 L 234.089844 555.25 C 203.273438 570.625 166.914062 569.800781 136.828125 553.046875 C 123.34375 545.535156 108.074219 541.921875 92.640625 542.566406 C 86.945312 542.808594 82.117188 538.378906 81.878906 532.675781 C 81.636719 526.96875 86.066406 522.152344 91.773438 521.910156 C 111.003906 521.09375 130.066406 525.621094 146.886719 534.984375 C 171.007812 548.414062 200.15625 549.074219 224.863281 536.75 L 241.398438 528.507812 C 270.246094 514.117188 303.496094 513.785156 332.625 527.601562 L 354.25 537.851562 C 376.953125 548.625 403.015625 548.648438 425.738281 537.921875 L 450.355469 526.304688 C 463.960938 519.878906 478.484375 516.527344 493.527344 516.339844 C 493.574219 516.339844 493.617188 516.339844 493.664062 516.339844 C 499.316406 516.339844 503.925781 520.882812 504 526.550781 C 504.074219 532.261719 499.503906 536.945312 493.792969 537.019531 C 481.730469 537.179688 470.089844 539.863281 459.183594 545.011719 L 434.570312 556.628906 C 420.417969 563.285156 405.238281 566.628906 390.0625 566.628906 Z M 434.5625 614.15625 L 459.175781 602.539062 C 464.339844 600.101562 466.554688 593.941406 464.117188 588.777344 C 461.679688 583.613281 455.519531 581.402344 450.355469 583.839844 L 425.738281 595.457031 C 403.015625 606.183594 376.953125 606.160156 354.25 595.386719 L 332.625 585.136719 C 303.496094 571.320312 270.246094 571.652344 241.398438 586.042969 L 224.863281 594.285156 C 200.15625 606.609375 171.007812 605.949219 146.886719 592.519531 C 141.894531 589.738281 135.597656 591.535156 132.824219 596.519531 C 130.042969 601.511719 131.84375 607.808594 136.828125 610.582031 C 166.914062 627.335938 203.273438 628.160156 234.089844 612.785156 L 250.625 604.539062 C 273.746094 593.003906 300.410156 592.742188 323.757812 603.8125 L 345.382812 614.066406 C 359.578125 620.796875 374.816406 624.164062 390.0625 624.164062 C 405.238281 624.164062 420.417969 620.828125 434.5625 614.15625 Z M 609.535156 506.484375 C 611.84375 501.261719 609.476562 495.160156 604.25 492.851562 L 536.933594 463.152344 C 509.261719 450.945312 477.707031 451.347656 450.347656 464.253906 L 425.734375 475.875 C 403.007812 486.597656 376.945312 486.578125 354.242188 475.804688 L 332.617188 465.550781 C 303.488281 451.738281 270.238281 452.066406 241.390625 466.460938 L 224.855469 474.703125 C 200.148438 487.027344 171 486.367188 146.878906 472.933594 C 115.9375 455.710938 78.773438 455.296875 47.460938 471.839844 L 7.082031 493.164062 C 2.027344 495.832031 0.101562 502.085938 2.765625 507.136719 C 5.433594 512.1875 11.691406 514.121094 16.734375 511.453125 L 57.113281 490.128906 C 82.214844 476.871094 112.011719 477.199219 136.8125 491.007812 C 166.898438 507.757812 203.257812 508.582031 234.074219 493.210938 L 250.609375 484.964844 C 273.730469 473.429688 300.386719 473.160156 323.742188 484.238281 L 345.367188 494.492188 C 373.691406 507.925781 406.199219 507.960938 434.546875 494.574219 L 459.164062 482.957031 C 481.085938 472.605469 506.390625 472.28125 528.578125 482.070312 L 595.894531 511.769531 C 597.25 512.367188 598.667969 512.652344 600.0625 512.652344 C 604.042969 512.652344 607.835938 510.34375 609.535156 506.484375 Z M 609.535156 506.484375 " fill-opacity="1" fill-rule="nonzero"/></svg>